<svg width="1043" height="63" viewBox="0 0 1043 63" fill="none" xmlns="http://www.w3.org/2000/svg">
<g opacity="0.1">
<path d="M23 1.5C23 2.32843 22.3284 3 21.5 3C20.6716 3 20 2.32843 20 1.5C20 0.671573 20.6716 0 21.5 0C22.3284 0 23 0.671573 23 1.5Z" fill="#292D34"/>
<path d="M43 1.5C43 2.32843 42.3284 3 41.5 3C40.6716 3 40 2.32843 40 1.5C40 0.671573 40.6716 0 41.5 0C42.3284 0 43 0.671573 43 1.5Z" fill="#292D34"/>
<path d="M63 1.5C63 2.32843 62.3284 3 61.5 3C60.6716 3 60 2.32843 60 1.5C60 0.671573 60.6716 0 61.5 0C62.3284 0 63 0.671573 63 1.5Z" fill="#292D34"/>
<path d="M83 1.5C83 2.32843 82.3284 3 81.5 3C80.6716 3 80 2.32843 80 1.5C80 0.671573 80.6716 0 81.5 0C82.3284 0 83 0.671573 83 1.5Z" fill="#292D34"/>
<path d="M103 1.5C103 2.32843 102.328 3 101.5 3C100.672 3 100 2.32843 100 1.5C100 0.671573 100.672 0 101.5 0C102.328 0 103 0.671573 103 1.5Z" fill="#292D34"/>
<path d="M123 1.5C123 2.32843 122.328 3 121.5 3C120.672 3 120 2.32843 120 1.5C120 0.671573 120.672 0 121.5 0C122.328 0 123 0.671573 123 1.5Z" fill="#292D34"/>
<path d="M143 1.5C143 2.32843 142.328 3 141.5 3C140.672 3 140 2.32843 140 1.5C140 0.671573 140.672 0 141.5 0C142.328 0 143 0.671573 143 1.5Z" fill="#292D34"/>
<path d="M163 1.5C163 2.32843 162.328 3 161.5 3C160.672 3 160 2.32843 160 1.5C160 0.671573 160.672 0 161.5 0C162.328 0 163 0.671573 163 1.5Z" fill="#292D34"/>
<path d="M183 1.5C183 2.32843 182.328 3 181.5 3C180.672 3 180 2.32843 180 1.5C180 0.671573 180.672 0 181.5 0C182.328 0 183 0.671573 183 1.5Z" fill="#292D34"/>
<path d="M203 1.5C203 2.32843 202.328 3 201.5 3C200.672 3 200 2.32843 200 1.5C200 0.671573 200.672 0 201.5 0C202.328 0 203 0.671573 203 1.5Z" fill="#292D34"/>
<path d="M223 1.5C223 2.32843 222.328 3 221.5 3C220.672 3 220 2.32843 220 1.5C220 0.671573 220.672 0 221.5 0C222.328 0 223 0.671573 223 1.5Z" fill="#292D34"/>
<path d="M243 1.5C243 2.32843 242.328 3 241.5 3C240.672 3 240 2.32843 240 1.5C240 0.671573 240.672 0 241.5 0C242.328 0 243 0.671573 243 1.5Z" fill="#292D34"/>
<path d="M43 21.5C43 22.3284 42.3284 23 41.5 23C40.6716 23 40 22.3284 40 21.5C40 20.6716 40.6716 20 41.5 20C42.3284 20 43 20.6716 43 21.5Z" fill="#292D34"/>
<path d="M63 21.5C63 22.3284 62.3284 23 61.5 23C60.6716 23 60 22.3284 60 21.5C60 20.6716 60.6716 20 61.5 20C62.3284 20 63 20.6716 63 21.5Z" fill="#292D34"/>
<path d="M83 21.5C83 22.3284 82.3284 23 81.5 23C80.6716 23 80 22.3284 80 21.5C80 20.6716 80.6716 20 81.5 20C82.3284 20 83 20.6716 83 21.5Z" fill="#292D34"/>
<path d="M103 21.5C103 22.3284 102.328 23 101.5 23C100.672 23 100 22.3284 100 21.5C100 20.6716 100.672 20 101.5 20C102.328 20 103 20.6716 103 21.5Z" fill="#292D34"/>
<path d="M123 21.5C123 22.3284 122.328 23 121.5 23C120.672 23 120 22.3284 120 21.5C120 20.6716 120.672 20 121.5 20C122.328 20 123 20.6716 123 21.5Z" fill="#292D34"/>
<path d="M143 21.5C143 22.3284 142.328 23 141.5 23C140.672 23 140 22.3284 140 21.5C140 20.6716 140.672 20 141.5 20C142.328 20 143 20.6716 143 21.5Z" fill="#292D34"/>
<path d="M163 21.5C163 22.3284 162.328 23 161.5 23C160.672 23 160 22.3284 160 21.5C160 20.6716 160.672 20 161.5 20C162.328 20 163 20.6716 163 21.5Z" fill="#292D34"/>
<path d="M183 21.5C183 22.3284 182.328 23 181.5 23C180.672 23 180 22.3284 180 21.5C180 20.6716 180.672 20 181.5 20C182.328 20 183 20.6716 183 21.5Z" fill="#292D34"/>
<path d="M203 21.5C203 22.3284 202.328 23 201.5 23C200.672 23 200 22.3284 200 21.5C200 20.6716 200.672 20 201.5 20C202.328 20 203 20.6716 203 21.5Z" fill="#292D34"/>
<path d="M223 21.5C223 22.3284 222.328 23 221.5 23C220.672 23 220 22.3284 220 21.5C220 20.6716 220.672 20 221.5 20C222.328 20 223 20.6716 223 21.5Z" fill="#292D34"/>
<path d="M243 21.5C243 22.3284 242.328 23 241.5 23C240.672 23 240 22.3284 240 21.5C240 20.6716 240.672 20 241.5 20C242.328 20 243 20.6716 243 21.5Z" fill="#292D34"/>
<path d="M63 41.5C63 42.3284 62.3284 43 61.5 43C60.6716 43 60 42.3284 60 41.5C60 40.6716 60.6716 40 61.5 40C62.3284 40 63 40.6716 63 41.5Z" fill="#292D34"/>
<path d="M83 41.5C83 42.3284 82.3284 43 81.5 43C80.6716 43 80 42.3284 80 41.5C80 40.6716 80.6716 40 81.5 40C82.3284 40 83 40.6716 83 41.5Z" fill="#292D34"/>
<path d="M103 41.5C103 42.3284 102.328 43 101.5 43C100.672 43 100 42.3284 100 41.5C100 40.6716 100.672 40 101.5 40C102.328 40 103 40.6716 103 41.5Z" fill="#292D34"/>
<path d="M123 41.5C123 42.3284 122.328 43 121.5 43C120.672 43 120 42.3284 120 41.5C120 40.6716 120.672 40 121.5 40C122.328 40 123 40.6716 123 41.5Z" fill="#292D34"/>
<path d="M143 41.5C143 42.3284 142.328 43 141.5 43C140.672 43 140 42.3284 140 41.5C140 40.6716 140.672 40 141.5 40C142.328 40 143 40.6716 143 41.5Z" fill="#292D34"/>
<path d="M163 41.5C163 42.3284 162.328 43 161.5 43C160.672 43 160 42.3284 160 41.5C160 40.6716 160.672 40 161.5 40C162.328 40 163 40.6716 163 41.5Z" fill="#292D34"/>
<path d="M183 41.5C183 42.3284 182.328 43 181.5 43C180.672 43 180 42.3284 180 41.5C180 40.6716 180.672 40 181.5 40C182.328 40 183 40.6716 183 41.5Z" fill="#292D34"/>
<path d="M203 41.5C203 42.3284 202.328 43 201.5 43C200.672 43 200 42.3284 200 41.5C200 40.6716 200.672 40 201.5 40C202.328 40 203 40.6716 203 41.5Z" fill="#292D34"/>
<path d="M223 41.5C223 42.3284 222.328 43 221.5 43C220.672 43 220 42.3284 220 41.5C220 40.6716 220.672 40 221.5 40C222.328 40 223 40.6716 223 41.5Z" fill="#292D34"/>
<path d="M243 41.5C243 42.3284 242.328 43 241.5 43C240.672 43 240 42.3284 240 41.5C240 40.6716 240.672 40 241.5 40C242.328 40 243 40.6716 243 41.5Z" fill="#292D34"/>
<path d="M83 61.5C83 62.3284 82.3284 63 81.5 63C80.6716 63 80 62.3284 80 61.5C80 60.6716 80.6716 60 81.5 60C82.3284 60 83 60.6716 83 61.5Z" fill="#292D34"/>
<path d="M103 61.5C103 62.3284 102.328 63 101.5 63C100.672 63 100 62.3284 100 61.5C100 60.6716 100.672 60 101.5 60C102.328 60 103 60.6716 103 61.5Z" fill="#292D34"/>
<path d="M123 61.5C123 62.3284 122.328 63 121.5 63C120.672 63 120 62.3284 120 61.5C120 60.6716 120.672 60 121.5 60C122.328 60 123 60.6716 123 61.5Z" fill="#292D34"/>
<path d="M143 61.5C143 62.3284 142.328 63 141.5 63C140.672 63 140 62.3284 140 61.5C140 60.6716 140.672 60 141.5 60C142.328 60 143 60.6716 143 61.5Z" fill="#292D34"/>
<path d="M163 61.5C163 62.3284 162.328 63 161.5 63C160.672 63 160 62.3284 160 61.5C160 60.6716 160.672 60 161.5 60C162.328 60 163 60.6716 163 61.5Z" fill="#292D34"/>
<path d="M183 61.5C183 62.3284 182.328 63 181.5 63C180.672 63 180 62.3284 180 61.5C180 60.6716 180.672 60 181.5 60C182.328 60 183 60.6716 183 61.5Z" fill="#292D34"/>
<path d="M203 61.5C203 62.3284 202.328 63 201.5 63C200.672 63 200 62.3284 200 61.5C200 60.6716 200.672 60 201.5 60C202.328 60 203 60.6716 203 61.5Z" fill="#292D34"/>
<path d="M223 61.5C223 62.3284 222.328 63 221.5 63C220.672 63 220 62.3284 220 61.5C220 60.6716 220.672 60 221.5 60C222.328 60 223 60.6716 223 61.5Z" fill="#292D34"/>
<path d="M243 61.5C243 62.3284 242.328 63 241.5 63C240.672 63 240 62.3284 240 61.5C240 60.6716 240.672 60 241.5 60C242.328 60 243 60.6716 243 61.5Z" fill="#292D34"/>
<path d="M263 1.5C263 2.32843 262.328 3 261.5 3C260.672 3 260 2.32843 260 1.5C260 0.671573 260.672 0 261.5 0C262.328 0 263 0.671573 263 1.5Z" fill="#292D34"/>
<path d="M283 1.5C283 2.32843 282.328 3 281.5 3C280.672 3 280 2.32843 280 1.5C280 0.671573 280.672 0 281.5 0C282.328 0 283 0.671573 283 1.5Z" fill="#292D34"/>
<path d="M303 1.5C303 2.32843 302.328 3 301.5 3C300.672 3 300 2.32843 300 1.5C300 0.671573 300.672 0 301.5 0C302.328 0 303 0.671573 303 1.5Z" fill="#292D34"/>
<path d="M323 1.5C323 2.32843 322.328 3 321.5 3C320.672 3 320 2.32843 320 1.5C320 0.671573 320.672 0 321.5 0C322.328 0 323 0.671573 323 1.5Z" fill="#292D34"/>
<path d="M343 1.5C343 2.32843 342.328 3 341.5 3C340.672 3 340 2.32843 340 1.5C340 0.671573 340.672 0 341.5 0C342.328 0 343 0.671573 343 1.5Z" fill="#292D34"/>
<path d="M363 1.5C363 2.32843 362.328 3 361.5 3C360.672 3 360 2.32843 360 1.5C360 0.671573 360.672 0 361.5 0C362.328 0 363 0.671573 363 1.5Z" fill="#292D34"/>
<path d="M383 1.5C383 2.32843 382.328 3 381.5 3C380.672 3 380 2.32843 380 1.5C380 0.671573 380.672 0 381.5 0C382.328 0 383 0.671573 383 1.5Z" fill="#292D34"/>
<path d="M403 1.5C403 2.32843 402.328 3 401.5 3C400.672 3 400 2.32843 400 1.5C400 0.671573 400.672 0 401.5 0C402.328 0 403 0.671573 403 1.5Z" fill="#292D34"/>
<path d="M423 1.5C423 2.32843 422.328 3 421.5 3C420.672 3 420 2.32843 420 1.5C420 0.671573 420.672 0 421.5 0C422.328 0 423 0.671573 423 1.5Z" fill="#292D34"/>
<path d="M443 1.5C443 2.32843 442.328 3 441.5 3C440.672 3 440 2.32843 440 1.5C440 0.671573 440.672 0 441.5 0C442.328 0 443 0.671573 443 1.5Z" fill="#292D34"/>
<path d="M463 1.5C463 2.32843 462.328 3 461.5 3C460.672 3 460 2.32843 460 1.5C460 0.671573 460.672 0 461.5 0C462.328 0 463 0.671573 463 1.5Z" fill="#292D34"/>
<path d="M483 1.5C483 2.32843 482.328 3 481.5 3C480.672 3 480 2.32843 480 1.5C480 0.671573 480.672 0 481.5 0C482.328 0 483 0.671573 483 1.5Z" fill="#292D34"/>
<path d="M503 1.5C503 2.32843 502.328 3 501.5 3C500.672 3 500 2.32843 500 1.5C500 0.671573 500.672 0 501.5 0C502.328 0 503 0.671573 503 1.5Z" fill="#292D34"/>
<path d="M523 1.5C523 2.32843 522.328 3 521.5 3C520.672 3 520 2.32843 520 1.5C520 0.671573 520.672 0 521.5 0C522.328 0 523 0.671573 523 1.5Z" fill="#292D34"/>
<path d="M543 1.5C543 2.32843 542.328 3 541.5 3C540.672 3 540 2.32843 540 1.5C540 0.671573 540.672 0 541.5 0C542.328 0 543 0.671573 543 1.5Z" fill="#292D34"/>
<path d="M263 21.5C263 22.3284 262.328 23 261.5 23C260.672 23 260 22.3284 260 21.5C260 20.6716 260.672 20 261.5 20C262.328 20 263 20.6716 263 21.5Z" fill="#292D34"/>
<path d="M283 21.5C283 22.3284 282.328 23 281.5 23C280.672 23 280 22.3284 280 21.5C280 20.6716 280.672 20 281.5 20C282.328 20 283 20.6716 283 21.5Z" fill="#292D34"/>
<path d="M303 21.5C303 22.3284 302.328 23 301.5 23C300.672 23 300 22.3284 300 21.5C300 20.6716 300.672 20 301.5 20C302.328 20 303 20.6716 303 21.5Z" fill="#292D34"/>
<path d="M323 21.5C323 22.3284 322.328 23 321.5 23C320.672 23 320 22.3284 320 21.5C320 20.6716 320.672 20 321.5 20C322.328 20 323 20.6716 323 21.5Z" fill="#292D34"/>
<path d="M343 21.5C343 22.3284 342.328 23 341.5 23C340.672 23 340 22.3284 340 21.5C340 20.6716 340.672 20 341.5 20C342.328 20 343 20.6716 343 21.5Z" fill="#292D34"/>
<path d="M363 21.5C363 22.3284 362.328 23 361.5 23C360.672 23 360 22.3284 360 21.5C360 20.6716 360.672 20 361.5 20C362.328 20 363 20.6716 363 21.5Z" fill="#292D34"/>
<path d="M383 21.5C383 22.3284 382.328 23 381.5 23C380.672 23 380 22.3284 380 21.5C380 20.6716 380.672 20 381.5 20C382.328 20 383 20.6716 383 21.5Z" fill="#292D34"/>
<path d="M403 21.5C403 22.3284 402.328 23 401.5 23C400.672 23 400 22.3284 400 21.5C400 20.6716 400.672 20 401.5 20C402.328 20 403 20.6716 403 21.5Z" fill="#292D34"/>
<path d="M423 21.5C423 22.3284 422.328 23 421.5 23C420.672 23 420 22.3284 420 21.5C420 20.6716 420.672 20 421.5 20C422.328 20 423 20.6716 423 21.5Z" fill="#292D34"/>
<path d="M443 21.5C443 22.3284 442.328 23 441.5 23C440.672 23 440 22.3284 440 21.5C440 20.6716 440.672 20 441.5 20C442.328 20 443 20.6716 443 21.5Z" fill="#292D34"/>
<path d="M463 21.5C463 22.3284 462.328 23 461.5 23C460.672 23 460 22.3284 460 21.5C460 20.6716 460.672 20 461.5 20C462.328 20 463 20.6716 463 21.5Z" fill="#292D34"/>
<path d="M483 21.5C483 22.3284 482.328 23 481.5 23C480.672 23 480 22.3284 480 21.5C480 20.6716 480.672 20 481.5 20C482.328 20 483 20.6716 483 21.5Z" fill="#292D34"/>
<path d="M503 21.5C503 22.3284 502.328 23 501.5 23C500.672 23 500 22.3284 500 21.5C500 20.6716 500.672 20 501.5 20C502.328 20 503 20.6716 503 21.5Z" fill="#292D34"/>
<path d="M523 21.5C523 22.3284 522.328 23 521.5 23C520.672 23 520 22.3284 520 21.5C520 20.6716 520.672 20 521.5 20C522.328 20 523 20.6716 523 21.5Z" fill="#292D34"/>
<path d="M543 21.5C543 22.3284 542.328 23 541.5 23C540.672 23 540 22.3284 540 21.5C540 20.6716 540.672 20 541.5 20C542.328 20 543 20.6716 543 21.5Z" fill="#292D34"/>
<path d="M263 41.5C263 42.3284 262.328 43 261.5 43C260.672 43 260 42.3284 260 41.5C260 40.6716 260.672 40 261.5 40C262.328 40 263 40.6716 263 41.5Z" fill="#292D34"/>
<path d="M283 41.5C283 42.3284 282.328 43 281.5 43C280.672 43 280 42.3284 280 41.5C280 40.6716 280.672 40 281.5 40C282.328 40 283 40.6716 283 41.5Z" fill="#292D34"/>
<path d="M303 41.5C303 42.3284 302.328 43 301.5 43C300.672 43 300 42.3284 300 41.5C300 40.6716 300.672 40 301.5 40C302.328 40 303 40.6716 303 41.5Z" fill="#292D34"/>
<path d="M323 41.5C323 42.3284 322.328 43 321.5 43C320.672 43 320 42.3284 320 41.5C320 40.6716 320.672 40 321.5 40C322.328 40 323 40.6716 323 41.5Z" fill="#292D34"/>
<path d="M343 41.5C343 42.3284 342.328 43 341.5 43C340.672 43 340 42.3284 340 41.5C340 40.6716 340.672 40 341.5 40C342.328 40 343 40.6716 343 41.5Z" fill="#292D34"/>
<path d="M363 41.5C363 42.3284 362.328 43 361.5 43C360.672 43 360 42.3284 360 41.5C360 40.6716 360.672 40 361.5 40C362.328 40 363 40.6716 363 41.5Z" fill="#292D34"/>
<path d="M383 41.5C383 42.3284 382.328 43 381.5 43C380.672 43 380 42.3284 380 41.5C380 40.6716 380.672 40 381.5 40C382.328 40 383 40.6716 383 41.5Z" fill="#292D34"/>
<path d="M403 41.5C403 42.3284 402.328 43 401.5 43C400.672 43 400 42.3284 400 41.5C400 40.6716 400.672 40 401.5 40C402.328 40 403 40.6716 403 41.5Z" fill="#292D34"/>
<path d="M423 41.5C423 42.3284 422.328 43 421.5 43C420.672 43 420 42.3284 420 41.5C420 40.6716 420.672 40 421.5 40C422.328 40 423 40.6716 423 41.5Z" fill="#292D34"/>
<path d="M443 41.5C443 42.3284 442.328 43 441.5 43C440.672 43 440 42.3284 440 41.5C440 40.6716 440.672 40 441.5 40C442.328 40 443 40.6716 443 41.5Z" fill="#292D34"/>
<path d="M463 41.5C463 42.3284 462.328 43 461.5 43C460.672 43 460 42.3284 460 41.5C460 40.6716 460.672 40 461.5 40C462.328 40 463 40.6716 463 41.5Z" fill="#292D34"/>
<path d="M483 41.5C483 42.3284 482.328 43 481.5 43C480.672 43 480 42.3284 480 41.5C480 40.6716 480.672 40 481.5 40C482.328 40 483 40.6716 483 41.5Z" fill="#292D34"/>
<path d="M503 41.5C503 42.3284 502.328 43 501.5 43C500.672 43 500 42.3284 500 41.5C500 40.6716 500.672 40 501.5 40C502.328 40 503 40.6716 503 41.5Z" fill="#292D34"/>
<path d="M523 41.5C523 42.3284 522.328 43 521.5 43C520.672 43 520 42.3284 520 41.5C520 40.6716 520.672 40 521.5 40C522.328 40 523 40.6716 523 41.5Z" fill="#292D34"/>
<path d="M543 41.5C543 42.3284 542.328 43 541.5 43C540.672 43 540 42.3284 540 41.5C540 40.6716 540.672 40 541.5 40C542.328 40 543 40.6716 543 41.5Z" fill="#292D34"/>
<path d="M263 61.5C263 62.3284 262.328 63 261.5 63C260.672 63 260 62.3284 260 61.5C260 60.6716 260.672 60 261.5 60C262.328 60 263 60.6716 263 61.5Z" fill="#292D34"/>
<path d="M283 61.5C283 62.3284 282.328 63 281.5 63C280.672 63 280 62.3284 280 61.5C280 60.6716 280.672 60 281.5 60C282.328 60 283 60.6716 283 61.5Z" fill="#292D34"/>
<path d="M303 61.5C303 62.3284 302.328 63 301.5 63C300.672 63 300 62.3284 300 61.5C300 60.6716 300.672 60 301.5 60C302.328 60 303 60.6716 303 61.5Z" fill="#292D34"/>
<path d="M323 61.5C323 62.3284 322.328 63 321.5 63C320.672 63 320 62.3284 320 61.5C320 60.6716 320.672 60 321.5 60C322.328 60 323 60.6716 323 61.5Z" fill="#292D34"/>
<path d="M343 61.5C343 62.3284 342.328 63 341.5 63C340.672 63 340 62.3284 340 61.5C340 60.6716 340.672 60 341.5 60C342.328 60 343 60.6716 343 61.5Z" fill="#292D34"/>
<path d="M363 61.5C363 62.3284 362.328 63 361.5 63C360.672 63 360 62.3284 360 61.5C360 60.6716 360.672 60 361.5 60C362.328 60 363 60.6716 363 61.5Z" fill="#292D34"/>
<path d="M383 61.5C383 62.3284 382.328 63 381.5 63C380.672 63 380 62.3284 380 61.5C380 60.6716 380.672 60 381.5 60C382.328 60 383 60.6716 383 61.5Z" fill="#292D34"/>
<path d="M403 61.5C403 62.3284 402.328 63 401.5 63C400.672 63 400 62.3284 400 61.5C400 60.6716 400.672 60 401.5 60C402.328 60 403 60.6716 403 61.5Z" fill="#292D34"/>
<path d="M423 61.5C423 62.3284 422.328 63 421.5 63C420.672 63 420 62.3284 420 61.5C420 60.6716 420.672 60 421.5 60C422.328 60 423 60.6716 423 61.5Z" fill="#292D34"/>
<path d="M443 61.5C443 62.3284 442.328 63 441.5 63C440.672 63 440 62.3284 440 61.5C440 60.6716 440.672 60 441.5 60C442.328 60 443 60.6716 443 61.5Z" fill="#292D34"/>
<path d="M463 61.5C463 62.3284 462.328 63 461.5 63C460.672 63 460 62.3284 460 61.5C460 60.6716 460.672 60 461.5 60C462.328 60 463 60.6716 463 61.5Z" fill="#292D34"/>
<path d="M483 61.5C483 62.3284 482.328 63 481.5 63C480.672 63 480 62.3284 480 61.5C480 60.6716 480.672 60 481.5 60C482.328 60 483 60.6716 483 61.5Z" fill="#292D34"/>
<path d="M503 61.5C503 62.3284 502.328 63 501.5 63C500.672 63 500 62.3284 500 61.5C500 60.6716 500.672 60 501.5 60C502.328 60 503 60.6716 503 61.5Z" fill="#292D34"/>
<path d="M523 61.5C523 62.3284 522.328 63 521.5 63C520.672 63 520 62.3284 520 61.5C520 60.6716 520.672 60 521.5 60C522.328 60 523 60.6716 523 61.5Z" fill="#292D34"/>
<path d="M543 61.5C543 62.3284 542.328 63 541.5 63C540.672 63 540 62.3284 540 61.5C540 60.6716 540.672 60 541.5 60C542.328 60 543 60.6716 543 61.5Z" fill="#292D34"/>
<path d="M563 1.5C563 2.32843 562.328 3 561.5 3C560.672 3 560 2.32843 560 1.5C560 0.671573 560.672 0 561.5 0C562.328 0 563 0.671573 563 1.5Z" fill="#292D34"/>
<path d="M583 1.5C583 2.32843 582.328 3 581.5 3C580.672 3 580 2.32843 580 1.5C580 0.671573 580.672 0 581.5 0C582.328 0 583 0.671573 583 1.5Z" fill="#292D34"/>
<path d="M603 1.5C603 2.32843 602.328 3 601.5 3C600.672 3 600 2.32843 600 1.5C600 0.671573 600.672 0 601.5 0C602.328 0 603 0.671573 603 1.5Z" fill="#292D34"/>
<path d="M623 1.5C623 2.32843 622.328 3 621.5 3C620.672 3 620 2.32843 620 1.5C620 0.671573 620.672 0 621.5 0C622.328 0 623 0.671573 623 1.5Z" fill="#292D34"/>
<path d="M643 1.5C643 2.32843 642.328 3 641.5 3C640.672 3 640 2.32843 640 1.5C640 0.671573 640.672 0 641.5 0C642.328 0 643 0.671573 643 1.5Z" fill="#292D34"/>
<path d="M663 1.5C663 2.32843 662.328 3 661.5 3C660.672 3 660 2.32843 660 1.5C660 0.671573 660.672 0 661.5 0C662.328 0 663 0.671573 663 1.5Z" fill="#292D34"/>
<path d="M683 1.5C683 2.32843 682.328 3 681.5 3C680.672 3 680 2.32843 680 1.5C680 0.671573 680.672 0 681.5 0C682.328 0 683 0.671573 683 1.5Z" fill="#292D34"/>
<path d="M703 1.5C703 2.32843 702.328 3 701.5 3C700.672 3 700 2.32843 700 1.5C700 0.671573 700.672 0 701.5 0C702.328 0 703 0.671573 703 1.5Z" fill="#292D34"/>
<path d="M723 1.5C723 2.32843 722.328 3 721.5 3C720.672 3 720 2.32843 720 1.5C720 0.671573 720.672 0 721.5 0C722.328 0 723 0.671573 723 1.5Z" fill="#292D34"/>
<path d="M743 1.5C743 2.32843 742.328 3 741.5 3C740.672 3 740 2.32843 740 1.5C740 0.671573 740.672 0 741.5 0C742.328 0 743 0.671573 743 1.5Z" fill="#292D34"/>
<path d="M763 1.5C763 2.32843 762.328 3 761.5 3C760.672 3 760 2.32843 760 1.5C760 0.671573 760.672 0 761.5 0C762.328 0 763 0.671573 763 1.5Z" fill="#292D34"/>
<path d="M783 1.5C783 2.32843 782.328 3 781.5 3C780.672 3 780 2.32843 780 1.5C780 0.671573 780.672 0 781.5 0C782.328 0 783 0.671573 783 1.5Z" fill="#292D34"/>
<path d="M803 1.5C803 2.32843 802.328 3 801.5 3C800.672 3 800 2.32843 800 1.5C800 0.671573 800.672 0 801.5 0C802.328 0 803 0.671573 803 1.5Z" fill="#292D34"/>
<path d="M823 1.5C823 2.32843 822.328 3 821.5 3C820.672 3 820 2.32843 820 1.5C820 0.671573 820.672 0 821.5 0C822.328 0 823 0.671573 823 1.5Z" fill="#292D34"/>
<path d="M843 1.5C843 2.32843 842.328 3 841.5 3C840.672 3 840 2.32843 840 1.5C840 0.671573 840.672 0 841.5 0C842.328 0 843 0.671573 843 1.5Z" fill="#292D34"/>
<path d="M563 21.5C563 22.3284 562.328 23 561.5 23C560.672 23 560 22.3284 560 21.5C560 20.6716 560.672 20 561.5 20C562.328 20 563 20.6716 563 21.5Z" fill="#292D34"/>
<path d="M583 21.5C583 22.3284 582.328 23 581.5 23C580.672 23 580 22.3284 580 21.5C580 20.6716 580.672 20 581.5 20C582.328 20 583 20.6716 583 21.5Z" fill="#292D34"/>
<path d="M603 21.5C603 22.3284 602.328 23 601.5 23C600.672 23 600 22.3284 600 21.5C600 20.6716 600.672 20 601.5 20C602.328 20 603 20.6716 603 21.5Z" fill="#292D34"/>
<path d="M623 21.5C623 22.3284 622.328 23 621.5 23C620.672 23 620 22.3284 620 21.5C620 20.6716 620.672 20 621.5 20C622.328 20 623 20.6716 623 21.5Z" fill="#292D34"/>
<path d="M643 21.5C643 22.3284 642.328 23 641.5 23C640.672 23 640 22.3284 640 21.5C640 20.6716 640.672 20 641.5 20C642.328 20 643 20.6716 643 21.5Z" fill="#292D34"/>
<path d="M663 21.5C663 22.3284 662.328 23 661.5 23C660.672 23 660 22.3284 660 21.5C660 20.6716 660.672 20 661.5 20C662.328 20 663 20.6716 663 21.5Z" fill="#292D34"/>
<path d="M683 21.5C683 22.3284 682.328 23 681.5 23C680.672 23 680 22.3284 680 21.5C680 20.6716 680.672 20 681.5 20C682.328 20 683 20.6716 683 21.5Z" fill="#292D34"/>
<path d="M703 21.5C703 22.3284 702.328 23 701.5 23C700.672 23 700 22.3284 700 21.5C700 20.6716 700.672 20 701.5 20C702.328 20 703 20.6716 703 21.5Z" fill="#292D34"/>
<path d="M723 21.5C723 22.3284 722.328 23 721.5 23C720.672 23 720 22.3284 720 21.5C720 20.6716 720.672 20 721.5 20C722.328 20 723 20.6716 723 21.5Z" fill="#292D34"/>
<path d="M743 21.5C743 22.3284 742.328 23 741.5 23C740.672 23 740 22.3284 740 21.5C740 20.6716 740.672 20 741.5 20C742.328 20 743 20.6716 743 21.5Z" fill="#292D34"/>
<path d="M763 21.5C763 22.3284 762.328 23 761.5 23C760.672 23 760 22.3284 760 21.5C760 20.6716 760.672 20 761.5 20C762.328 20 763 20.6716 763 21.5Z" fill="#292D34"/>
<path d="M783 21.5C783 22.3284 782.328 23 781.5 23C780.672 23 780 22.3284 780 21.5C780 20.6716 780.672 20 781.5 20C782.328 20 783 20.6716 783 21.5Z" fill="#292D34"/>
<path d="M803 21.5C803 22.3284 802.328 23 801.5 23C800.672 23 800 22.3284 800 21.5C800 20.6716 800.672 20 801.5 20C802.328 20 803 20.6716 803 21.5Z" fill="#292D34"/>
<path d="M823 21.5C823 22.3284 822.328 23 821.5 23C820.672 23 820 22.3284 820 21.5C820 20.6716 820.672 20 821.5 20C822.328 20 823 20.6716 823 21.5Z" fill="#292D34"/>
<path d="M843 21.5C843 22.3284 842.328 23 841.5 23C840.672 23 840 22.3284 840 21.5C840 20.6716 840.672 20 841.5 20C842.328 20 843 20.6716 843 21.5Z" fill="#292D34"/>
<path d="M563 41.5C563 42.3284 562.328 43 561.5 43C560.672 43 560 42.3284 560 41.5C560 40.6716 560.672 40 561.5 40C562.328 40 563 40.6716 563 41.5Z" fill="#292D34"/>
<path d="M583 41.5C583 42.3284 582.328 43 581.5 43C580.672 43 580 42.3284 580 41.5C580 40.6716 580.672 40 581.5 40C582.328 40 583 40.6716 583 41.5Z" fill="#292D34"/>
<path d="M603 41.5C603 42.3284 602.328 43 601.5 43C600.672 43 600 42.3284 600 41.5C600 40.6716 600.672 40 601.5 40C602.328 40 603 40.6716 603 41.5Z" fill="#292D34"/>
<path d="M623 41.5C623 42.3284 622.328 43 621.5 43C620.672 43 620 42.3284 620 41.5C620 40.6716 620.672 40 621.5 40C622.328 40 623 40.6716 623 41.5Z" fill="#292D34"/>
<path d="M643 41.5C643 42.3284 642.328 43 641.5 43C640.672 43 640 42.3284 640 41.5C640 40.6716 640.672 40 641.5 40C642.328 40 643 40.6716 643 41.5Z" fill="#292D34"/>
<path d="M663 41.5C663 42.3284 662.328 43 661.5 43C660.672 43 660 42.3284 660 41.5C660 40.6716 660.672 40 661.5 40C662.328 40 663 40.6716 663 41.5Z" fill="#292D34"/>
<path d="M683 41.5C683 42.3284 682.328 43 681.5 43C680.672 43 680 42.3284 680 41.5C680 40.6716 680.672 40 681.5 40C682.328 40 683 40.6716 683 41.5Z" fill="#292D34"/>
<path d="M703 41.5C703 42.3284 702.328 43 701.5 43C700.672 43 700 42.3284 700 41.5C700 40.6716 700.672 40 701.5 40C702.328 40 703 40.6716 703 41.5Z" fill="#292D34"/>
<path d="M723 41.5C723 42.3284 722.328 43 721.5 43C720.672 43 720 42.3284 720 41.5C720 40.6716 720.672 40 721.5 40C722.328 40 723 40.6716 723 41.5Z" fill="#292D34"/>
<path d="M743 41.5C743 42.3284 742.328 43 741.5 43C740.672 43 740 42.3284 740 41.5C740 40.6716 740.672 40 741.5 40C742.328 40 743 40.6716 743 41.5Z" fill="#292D34"/>
<path d="M763 41.5C763 42.3284 762.328 43 761.5 43C760.672 43 760 42.3284 760 41.5C760 40.6716 760.672 40 761.5 40C762.328 40 763 40.6716 763 41.5Z" fill="#292D34"/>
<path d="M783 41.5C783 42.3284 782.328 43 781.5 43C780.672 43 780 42.3284 780 41.5C780 40.6716 780.672 40 781.5 40C782.328 40 783 40.6716 783 41.5Z" fill="#292D34"/>
<path d="M803 41.5C803 42.3284 802.328 43 801.5 43C800.672 43 800 42.3284 800 41.5C800 40.6716 800.672 40 801.5 40C802.328 40 803 40.6716 803 41.5Z" fill="#292D34"/>
<path d="M823 41.5C823 42.3284 822.328 43 821.5 43C820.672 43 820 42.3284 820 41.5C820 40.6716 820.672 40 821.5 40C822.328 40 823 40.6716 823 41.5Z" fill="#292D34"/>
<path d="M843 41.5C843 42.3284 842.328 43 841.5 43C840.672 43 840 42.3284 840 41.5C840 40.6716 840.672 40 841.5 40C842.328 40 843 40.6716 843 41.5Z" fill="#292D34"/>
<path d="M563 61.5C563 62.3284 562.328 63 561.5 63C560.672 63 560 62.3284 560 61.5C560 60.6716 560.672 60 561.5 60C562.328 60 563 60.6716 563 61.5Z" fill="#292D34"/>
<path d="M583 61.5C583 62.3284 582.328 63 581.5 63C580.672 63 580 62.3284 580 61.5C580 60.6716 580.672 60 581.5 60C582.328 60 583 60.6716 583 61.5Z" fill="#292D34"/>
<path d="M603 61.5C603 62.3284 602.328 63 601.5 63C600.672 63 600 62.3284 600 61.5C600 60.6716 600.672 60 601.5 60C602.328 60 603 60.6716 603 61.5Z" fill="#292D34"/>
<path d="M623 61.5C623 62.3284 622.328 63 621.5 63C620.672 63 620 62.3284 620 61.5C620 60.6716 620.672 60 621.5 60C622.328 60 623 60.6716 623 61.5Z" fill="#292D34"/>
<path d="M643 61.5C643 62.3284 642.328 63 641.5 63C640.672 63 640 62.3284 640 61.5C640 60.6716 640.672 60 641.5 60C642.328 60 643 60.6716 643 61.5Z" fill="#292D34"/>
<path d="M663 61.5C663 62.3284 662.328 63 661.5 63C660.672 63 660 62.3284 660 61.5C660 60.6716 660.672 60 661.5 60C662.328 60 663 60.6716 663 61.5Z" fill="#292D34"/>
<path d="M683 61.5C683 62.3284 682.328 63 681.5 63C680.672 63 680 62.3284 680 61.5C680 60.6716 680.672 60 681.5 60C682.328 60 683 60.6716 683 61.5Z" fill="#292D34"/>
<path d="M703 61.5C703 62.3284 702.328 63 701.5 63C700.672 63 700 62.3284 700 61.5C700 60.6716 700.672 60 701.5 60C702.328 60 703 60.6716 703 61.5Z" fill="#292D34"/>
<path d="M723 61.5C723 62.3284 722.328 63 721.5 63C720.672 63 720 62.3284 720 61.5C720 60.6716 720.672 60 721.5 60C722.328 60 723 60.6716 723 61.5Z" fill="#292D34"/>
<path d="M743 61.5C743 62.3284 742.328 63 741.5 63C740.672 63 740 62.3284 740 61.5C740 60.6716 740.672 60 741.5 60C742.328 60 743 60.6716 743 61.5Z" fill="#292D34"/>
<path d="M763 61.5C763 62.3284 762.328 63 761.5 63C760.672 63 760 62.3284 760 61.5C760 60.6716 760.672 60 761.5 60C762.328 60 763 60.6716 763 61.5Z" fill="#292D34"/>
<path d="M783 61.5C783 62.3284 782.328 63 781.5 63C780.672 63 780 62.3284 780 61.5C780 60.6716 780.672 60 781.5 60C782.328 60 783 60.6716 783 61.5Z" fill="#292D34"/>
<path d="M803 61.5C803 62.3284 802.328 63 801.5 63C800.672 63 800 62.3284 800 61.5C800 60.6716 800.672 60 801.5 60C802.328 60 803 60.6716 803 61.5Z" fill="#292D34"/>
<path d="M823 61.5C823 62.3284 822.328 63 821.5 63C820.672 63 820 62.3284 820 61.5C820 60.6716 820.672 60 821.5 60C822.328 60 823 60.6716 823 61.5Z" fill="#292D34"/>
<path d="M843 61.5C843 62.3284 842.328 63 841.5 63C840.672 63 840 62.3284 840 61.5C840 60.6716 840.672 60 841.5 60C842.328 60 843 60.6716 843 61.5Z" fill="#292D34"/>
<path d="M863 1.5C863 2.32843 862.328 3 861.5 3C860.672 3 860 2.32843 860 1.5C860 0.671573 860.672 0 861.5 0C862.328 0 863 0.671573 863 1.5Z" fill="#292D34"/>
<path d="M883 1.5C883 2.32843 882.328 3 881.5 3C880.672 3 880 2.32843 880 1.5C880 0.671573 880.672 0 881.5 0C882.328 0 883 0.671573 883 1.5Z" fill="#292D34"/>
<path d="M903 1.5C903 2.32843 902.328 3 901.5 3C900.672 3 900 2.32843 900 1.5C900 0.671573 900.672 0 901.5 0C902.328 0 903 0.671573 903 1.5Z" fill="#292D34"/>
<path d="M923 1.5C923 2.32843 922.328 3 921.5 3C920.672 3 920 2.32843 920 1.5C920 0.671573 920.672 0 921.5 0C922.328 0 923 0.671573 923 1.5Z" fill="#292D34"/>
<path d="M943 1.5C943 2.32843 942.328 3 941.5 3C940.672 3 940 2.32843 940 1.5C940 0.671573 940.672 0 941.5 0C942.328 0 943 0.671573 943 1.5Z" fill="#292D34"/>
<path d="M963 1.5C963 2.32843 962.328 3 961.5 3C960.672 3 960 2.32843 960 1.5C960 0.671573 960.672 0 961.5 0C962.328 0 963 0.671573 963 1.5Z" fill="#292D34"/>
<path d="M983 1.5C983 2.32843 982.328 3 981.5 3C980.672 3 980 2.32843 980 1.5C980 0.671573 980.672 0 981.5 0C982.328 0 983 0.671573 983 1.5Z" fill="#292D34"/>
<path d="M1003 1.5C1003 2.32843 1002.33 3 1001.5 3C1000.67 3 1000 2.32843 1000 1.5C1000 0.671573 1000.67 0 1001.5 0C1002.33 0 1003 0.671573 1003 1.5Z" fill="#292D34"/>
<path d="M1023 1.5C1023 2.32843 1022.33 3 1021.5 3C1020.67 3 1020 2.32843 1020 1.5C1020 0.671573 1020.67 0 1021.5 0C1022.33 0 1023 0.671573 1023 1.5Z" fill="#292D34"/>
<path d="M1043 1.5C1043 2.32843 1042.33 3 1041.5 3C1040.67 3 1040 2.32843 1040 1.5C1040 0.671573 1040.67 0 1041.5 0C1042.33 0 1043 0.671573 1043 1.5Z" fill="#292D34"/>
<path d="M863 21.5C863 22.3284 862.328 23 861.5 23C860.672 23 860 22.3284 860 21.5C860 20.6716 860.672 20 861.5 20C862.328 20 863 20.6716 863 21.5Z" fill="#292D34"/>
<path d="M883 21.5C883 22.3284 882.328 23 881.5 23C880.672 23 880 22.3284 880 21.5C880 20.6716 880.672 20 881.5 20C882.328 20 883 20.6716 883 21.5Z" fill="#292D34"/>
<path d="M903 21.5C903 22.3284 902.328 23 901.5 23C900.672 23 900 22.3284 900 21.5C900 20.6716 900.672 20 901.5 20C902.328 20 903 20.6716 903 21.5Z" fill="#292D34"/>
<path d="M923 21.5C923 22.3284 922.328 23 921.5 23C920.672 23 920 22.3284 920 21.5C920 20.6716 920.672 20 921.5 20C922.328 20 923 20.6716 923 21.5Z" fill="#292D34"/>
<path d="M943 21.5C943 22.3284 942.328 23 941.5 23C940.672 23 940 22.3284 940 21.5C940 20.6716 940.672 20 941.5 20C942.328 20 943 20.6716 943 21.5Z" fill="#292D34"/>
<path d="M963 21.5C963 22.3284 962.328 23 961.5 23C960.672 23 960 22.3284 960 21.5C960 20.6716 960.672 20 961.5 20C962.328 20 963 20.6716 963 21.5Z" fill="#292D34"/>
<path d="M983 21.5C983 22.3284 982.328 23 981.5 23C980.672 23 980 22.3284 980 21.5C980 20.6716 980.672 20 981.5 20C982.328 20 983 20.6716 983 21.5Z" fill="#292D34"/>
<path d="M1003 21.5C1003 22.3284 1002.33 23 1001.5 23C1000.67 23 1000 22.3284 1000 21.5C1000 20.6716 1000.67 20 1001.5 20C1002.33 20 1003 20.6716 1003 21.5Z" fill="#292D34"/>
<path d="M1023 21.5C1023 22.3284 1022.33 23 1021.5 23C1020.67 23 1020 22.3284 1020 21.5C1020 20.6716 1020.67 20 1021.5 20C1022.33 20 1023 20.6716 1023 21.5Z" fill="#292D34"/>
<path d="M863 41.5C863 42.3284 862.328 43 861.5 43C860.672 43 860 42.3284 860 41.5C860 40.6716 860.672 40 861.5 40C862.328 40 863 40.6716 863 41.5Z" fill="#292D34"/>
<path d="M883 41.5C883 42.3284 882.328 43 881.5 43C880.672 43 880 42.3284 880 41.5C880 40.6716 880.672 40 881.5 40C882.328 40 883 40.6716 883 41.5Z" fill="#292D34"/>
<path d="M903 41.5C903 42.3284 902.328 43 901.5 43C900.672 43 900 42.3284 900 41.5C900 40.6716 900.672 40 901.5 40C902.328 40 903 40.6716 903 41.5Z" fill="#292D34"/>
<path d="M923 41.5C923 42.3284 922.328 43 921.5 43C920.672 43 920 42.3284 920 41.5C920 40.6716 920.672 40 921.5 40C922.328 40 923 40.6716 923 41.5Z" fill="#292D34"/>
<path d="M943 41.5C943 42.3284 942.328 43 941.5 43C940.672 43 940 42.3284 940 41.5C940 40.6716 940.672 40 941.5 40C942.328 40 943 40.6716 943 41.5Z" fill="#292D34"/>
<path d="M963 41.5C963 42.3284 962.328 43 961.5 43C960.672 43 960 42.3284 960 41.5C960 40.6716 960.672 40 961.5 40C962.328 40 963 40.6716 963 41.5Z" fill="#292D34"/>
<path d="M983 41.5C983 42.3284 982.328 43 981.5 43C980.672 43 980 42.3284 980 41.5C980 40.6716 980.672 40 981.5 40C982.328 40 983 40.6716 983 41.5Z" fill="#292D34"/>
<path d="M1003 41.5C1003 42.3284 1002.33 43 1001.5 43C1000.67 43 1000 42.3284 1000 41.5C1000 40.6716 1000.67 40 1001.5 40C1002.33 40 1003 40.6716 1003 41.5Z" fill="#292D34"/>
<path d="M863 61.5C863 62.3284 862.328 63 861.5 63C860.672 63 860 62.3284 860 61.5C860 60.6716 860.672 60 861.5 60C862.328 60 863 60.6716 863 61.5Z" fill="#292D34"/>
<path d="M883 61.5C883 62.3284 882.328 63 881.5 63C880.672 63 880 62.3284 880 61.5C880 60.6716 880.672 60 881.5 60C882.328 60 883 60.6716 883 61.5Z" fill="#292D34"/>
<path d="M903 61.5C903 62.3284 902.328 63 901.5 63C900.672 63 900 62.3284 900 61.5C900 60.6716 900.672 60 901.5 60C902.328 60 903 60.6716 903 61.5Z" fill="#292D34"/>
<path d="M923 61.5C923 62.3284 922.328 63 921.5 63C920.672 63 920 62.3284 920 61.5C920 60.6716 920.672 60 921.5 60C922.328 60 923 60.6716 923 61.5Z" fill="#292D34"/>
<path d="M943 61.5C943 62.3284 942.328 63 941.5 63C940.672 63 940 62.3284 940 61.5C940 60.6716 940.672 60 941.5 60C942.328 60 943 60.6716 943 61.5Z" fill="#292D34"/>
<path d="M963 61.5C963 62.3284 962.328 63 961.5 63C960.672 63 960 62.3284 960 61.5C960 60.6716 960.672 60 961.5 60C962.328 60 963 60.6716 963 61.5Z" fill="#292D34"/>
<path d="M983 61.5C983 62.3284 982.328 63 981.5 63C980.672 63 980 62.3284 980 61.5C980 60.6716 980.672 60 981.5 60C982.328 60 983 60.6716 983 61.5Z" fill="#292D34"/>
<path d="M3 1.5C3 2.32843 2.32843 3 1.5 3C0.671573 3 0 2.32843 0 1.5C0 0.671573 0.671573 0 1.5 0C2.32843 0 3 0.671573 3 1.5Z" fill="#292D34"/>
<path d="M23 21.5C23 22.3284 22.3284 23 21.5 23C20.6716 23 20 22.3284 20 21.5C20 20.6716 20.6716 20 21.5 20C22.3284 20 23 20.6716 23 21.5Z" fill="#292D34"/>
<path d="M43 41.5C43 42.3284 42.3284 43 41.5 43C40.6716 43 40 42.3284 40 41.5C40 40.6716 40.6716 40 41.5 40C42.3284 40 43 40.6716 43 41.5Z" fill="#292D34"/>
<path d="M63 61.5C63 62.3284 62.3284 63 61.5 63C60.6716 63 60 62.3284 60 61.5C60 60.6716 60.6716 60 61.5 60C62.3284 60 63 60.6716 63 61.5Z" fill="#292D34"/>
</g>
</svg>