<svg xmlns="http://www.w3.org/2000/svg" width="1920" height="364" viewBox="0 0 1920 364">
  <defs>
    <style>
      .cls-1 {
        fill: #6c757d;
        fill-rule: evenodd;
      }
    </style>
  </defs>
  <path id="datahover" class="cls-1" d="M94.418,296.442q-13.985-20.289-13.983-56.427,0-24.5,5.569-40.341t13.859-24.749A47.58,47.58,0,0,1,118.177,162.3a55.176,55.176,0,0,1,19.18-3.713,67.827,67.827,0,0,1,27.224,5.569,99.747,99.747,0,0,1,23.264,13.983V291.988a83.6,83.6,0,0,1-9.033,8.662,72.113,72.113,0,0,1-12.251,8.167,74.325,74.325,0,0,1-14.726,5.94,59.631,59.631,0,0,1-16.458,2.227Q108.4,316.741,94.418,296.442Zm-66.08,1.114q8.538,23.388,22.769,37.866A90.48,90.48,0,0,0,83.281,356.83a103.226,103.226,0,0,0,37.494,6.93,100.063,100.063,0,0,0,22.893-2.475,90.282,90.282,0,0,0,19.3-6.806,84.75,84.75,0,0,0,16.087-10.271,92.478,92.478,0,0,0,12.5-12.127h0.99l2.475,25.492h52.962q-0.5-13.365-.989-30.442T246.5,286.3V-0.794H187.845V98.945q0,10.644.124,19.676T188.34,132.6h-0.5a145.359,145.359,0,0,0-12.374-7.672,115.143,115.143,0,0,0-14.355-6.683,99.066,99.066,0,0,0-16.334-4.7,93.5,93.5,0,0,0-18.314-1.732,100.613,100.613,0,0,0-40.094,8.29,97.4,97.4,0,0,0-34.277,25Q37.12,161.808,28.461,186.433T19.8,242.49Q19.8,274.172,28.338,297.556ZM417.8,357.573h52.963q-0.5-13.365-.99-30.442t-0.5-40.836V195.961a84.176,84.176,0,0,0-6.559-33.411,71.557,71.557,0,0,0-19.8-26.605q-13.243-11.259-32.916-17.7t-45.91-6.434a221.665,221.665,0,0,0-42.568,4.454A192.919,192.919,0,0,0,283.169,128.4v45.786A280.307,280.307,0,0,1,321.777,162.3a163.96,163.96,0,0,1,35.639-3.96q14.6,0,24.749,3.588a45.1,45.1,0,0,1,16.458,9.652,36.383,36.383,0,0,1,9.157,13.86,46.968,46.968,0,0,1,2.846,16.211v9.652a201.517,201.517,0,0,0-23.016-4.7,193.233,193.233,0,0,0-28.709-1.98,128.15,128.15,0,0,0-38.856,5.569A87,87,0,0,0,289.851,226.4a73.91,73.91,0,0,0-19.675,25.986q-7.054,15.348-7.054,34.649a80.3,80.3,0,0,0,6.064,31.8,71.118,71.118,0,0,0,16.705,24.254,72.1,72.1,0,0,0,25.492,15.345,93.979,93.979,0,0,0,31.926,5.321,89.1,89.1,0,0,0,23.512-2.97,92.611,92.611,0,0,0,19.8-7.8,112.322,112.322,0,0,0,27.719-20.913h0.99Zm-7.178-65.585a83.6,83.6,0,0,1-9.033,8.662,70.753,70.753,0,0,1-12,8.043,77.073,77.073,0,0,1-14.6,5.94,58.775,58.775,0,0,1-16.83,2.351A45.919,45.919,0,0,1,344.546,315a32.6,32.6,0,0,1-11.26-5.94,28.208,28.208,0,0,1-7.673-10.023,33.175,33.175,0,0,1-2.846-14.231q0-17.57,12.5-26.11t34.029-8.538a150.745,150.745,0,0,1,22.027,1.608q10.889,1.612,19.3,3.589v36.629ZM641.08,308.817a173.13,173.13,0,0,1-18.933,4.084,126.807,126.807,0,0,1-20.171,1.608q-22.03,0-29.451-11.384-4.212-6.683-4.208-20.542V166.015h69.3V117.754h-69.3V50.684H509.662v67.07h-44.8v48.261h44.8v124.24q0,22.524,5.692,35.639,7.918,18.318,27.1,28.09t49.374,9.776a205.837,205.837,0,0,0,25.615-1.733,147.591,147.591,0,0,0,23.636-4.7V308.817Zm148.781,48.756h52.963q-0.5-13.365-.99-30.442T841.339,286.3V195.961a84.193,84.193,0,0,0-6.558-33.411,71.56,71.56,0,0,0-19.8-26.605q-13.242-11.259-32.916-17.7t-45.909-6.434a221.667,221.667,0,0,0-42.569,4.454A192.919,192.919,0,0,0,655.226,128.4v45.786A280.317,280.317,0,0,1,693.835,162.3a163.951,163.951,0,0,1,35.638-3.96q14.6,0,24.749,3.588a45.1,45.1,0,0,1,16.459,9.652,36.394,36.394,0,0,1,9.157,13.86,46.968,46.968,0,0,1,2.846,16.211v9.652a201.493,201.493,0,0,0-23.017-4.7,193.223,193.223,0,0,0-28.709-1.98,128.155,128.155,0,0,0-38.856,5.569A87,87,0,0,0,661.908,226.4a73.922,73.922,0,0,0-19.675,25.986q-7.053,15.348-7.054,34.649a80.3,80.3,0,0,0,6.064,31.8,71.121,71.121,0,0,0,16.706,24.254,72.1,72.1,0,0,0,25.491,15.345,93.988,93.988,0,0,0,31.926,5.321,89.1,89.1,0,0,0,23.512-2.97,92.611,92.611,0,0,0,19.8-7.8A112.272,112.272,0,0,0,786.4,332.081h0.99Zm-7.177-65.585a83.616,83.616,0,0,1-9.034,8.662,70.753,70.753,0,0,1-12,8.043,77.046,77.046,0,0,1-14.6,5.94,58.763,58.763,0,0,1-16.829,2.351A45.909,45.909,0,0,1,716.6,315a32.6,32.6,0,0,1-11.261-5.94,28.217,28.217,0,0,1-7.672-10.023,33.16,33.16,0,0,1-2.846-14.231q0-17.57,12.5-26.11t34.03-8.538a150.756,150.756,0,0,1,22.027,1.608q10.887,1.612,19.3,3.589v36.629ZM927.753-.794H869.1V357.573h58.655V192.5q12.123-15.342,26.6-23.264a66.794,66.794,0,0,1,31.555-8.167,51.989,51.989,0,0,1,22.027,4.455q9.645,4.455,14.85,15.344a42.03,42.03,0,0,1,3.46,12.251,135.572,135.572,0,0,1,.99,18.191V357.573h58.66V203.386a159.631,159.631,0,0,0-2.23-28.956,80.636,80.636,0,0,0-6.93-21.285,70.3,70.3,0,0,0-13.49-18.809,71.028,71.028,0,0,0-17.82-12.869,84.859,84.859,0,0,0-21.03-7.3,113.039,113.039,0,0,0-23.14-2.351,94.15,94.15,0,0,0-25.37,3.217,93.03,93.03,0,0,0-20.542,8.291,88.563,88.563,0,0,0-16.582,12,102.483,102.483,0,0,0-12.746,13.86h-0.99a217.173,217.173,0,0,0,2.1-21.656q0.615-12,.619-30.565V-0.794Zm345.537,272.24q-4.455,14.605-12.38,24.378a52.6,52.6,0,0,1-18.8,14.849,56.183,56.183,0,0,1-24.01,5.074,56.921,56.921,0,0,1-24.13-5.074,53.28,53.28,0,0,1-19.06-14.849q-8.04-9.774-12.5-24.378t-4.45-33.659q0-19.054,4.45-33.659t12.38-24.5a50.664,50.664,0,0,1,18.93-14.85,57.589,57.589,0,0,1,23.88-4.949,59.1,59.1,0,0,1,24.26,4.949,50.421,50.421,0,0,1,19.05,14.85q7.92,9.9,12.38,24.5t4.45,33.659Q1277.74,256.847,1273.29,271.446Zm56.8-85.137a112.567,112.567,0,0,0-23.88-39.846,105.67,105.67,0,0,0-37.99-25.615q-22.41-9.032-50.62-9.033-27.465,0-49.74,9.033a106.983,106.983,0,0,0-37.99,25.615,112.94,112.94,0,0,0-24.13,39.846q-8.415,23.266-8.42,51.478t8.29,51.478a112.371,112.371,0,0,0,23.89,39.846,105.4,105.4,0,0,0,37.99,25.615q22.4,9.032,50.61,9.034,27.465,0,49.74-9.034a106.967,106.967,0,0,0,37.99-25.615,112.868,112.868,0,0,0,24.13-39.846q8.415-23.26,8.42-51.478T1330.09,186.309Zm171.67-68.555-33.41,93.057q-15.345,42.321-25.74,75.732h-0.99q-11.88-38.609-26.23-77.217l-33.41-91.572H1320.1l93.06,239.819h58.16l92.81-239.819h-62.37Zm151.01,195.394a66.792,66.792,0,0,1-23.39-10.642,54.631,54.631,0,0,1-16.21-19.057q-6.18-11.751-7.42-28.337H1762.9q0.495-8.661.75-21.037,0-31.926-7.8-55.314t-21.78-38.238a84.314,84.314,0,0,0-33.16-21.779,122.7,122.7,0,0,0-41.95-6.929,114.194,114.194,0,0,0-42.2,8.043,103.949,103.949,0,0,0-36.26,24.13q-15.84,16.091-25.24,40.589t-9.4,57.17q0,33.168,10.02,56.428t27.1,37.866a105.143,105.143,0,0,0,39.97,21.16,174.94,174.94,0,0,0,48.38,6.559,261.483,261.483,0,0,0,48.76-4.455q23.505-4.455,34.89-9.405V303.125a275.076,275.076,0,0,1-37.61,9.9,194.089,194.089,0,0,1-35.64,3.465A119.2,119.2,0,0,1,1652.77,313.148Zm24.87-151.464a39.77,39.77,0,0,1,13.86,11.137,49.232,49.232,0,0,1,8.42,16.458,69.139,69.139,0,0,1,2.84,20.047h-94.29a79.348,79.348,0,0,1,4.95-20.047,54.608,54.608,0,0,1,10.02-16.458,46.458,46.458,0,0,1,14.98-11.137,45.872,45.872,0,0,1,19.8-4.084A43.461,43.461,0,0,1,1677.64,161.684ZM1920.1,112.8a102.9,102.9,0,0,0-15.34-.989q-25.5,0-43.69,10.518a76.2,76.2,0,0,0-28.58,28.833h-0.99l-5.45-33.412h-48.5V357.573h58.65V196.951q11.145-16.578,31.56-24.625t47.39-8.043h4.95V112.8Z"/>
</svg>
