<svg xmlns="http://www.w3.org/2000/svg" width="632" height="186" viewBox="0 0 632 186">
  <defs>
    <style>
      .cls-1 {
        fill: #6c757d;
        fill-rule: evenodd;
      }
    </style>
  </defs>
  <path id="DATA" class="cls-1" d="M283.714,126.615a152.412,152.412,0,0,0,22.211-1.463,85.7,85.7,0,0,0,17.641-4.387,58.159,58.159,0,0,0,16.133-8.912,50.213,50.213,0,0,0,11.289-12.569,54.777,54.777,0,0,0,6.672-15.767,74.97,74.97,0,0,0,2.194-18.51,68.64,68.64,0,0,0-2.6-19.332,54.384,54.384,0,0,0-7.678-16.133A51.692,51.692,0,0,0,337,17.02,62.464,62.464,0,0,0,319.727,8.61a59.207,59.207,0,0,0-7.221-1.874q-3.93-.776-8.135-1.325t-8.638-.823Q291.3,4.314,287,4.314H254.647v122.3h29.067Zm-6.673-18.739V23.053h9.872a102.264,102.264,0,0,1,14.35.914,53.116,53.116,0,0,1,11.609,2.925,41.443,41.443,0,0,1,10.009,5.576,32.927,32.927,0,0,1,7.541,8.089,37.056,37.056,0,0,1,4.753,10.74,51.425,51.425,0,0,1,1.645,13.528q0,14.351-5.027,23.582a33.137,33.137,0,0,1-14.808,14.077q-11.061,5.394-30.712,5.392h-9.232Zm166.105,18.739H466.82L418.284,4.314H397.809l-48.536,122.3H373.13l11.98-31.17h46.056ZM408.321,33.747q6.469,19.077,11.443,32.076l4.18,10.884H392.332l4.18-10.884q5.028-12.886,11.443-32.076h0.366Zm93.346-10.694h39.4V4.314H439.786V23.053h39.487V126.615h22.394V23.053ZM607.9,126.615h23.674L583.04,4.314H562.565l-48.536,122.3h23.857l11.98-31.17h46.056ZM573.077,33.747q6.469,19.077,11.443,32.076l4.18,10.884H557.088l4.18-10.884q5.028-12.886,11.443-32.076h0.366Z"/>
  <path id="HOVER" class="cls-1" d="M262.677,134.4h-8.062v44.028h8.062V159.28h20.4v19.151h8.062V134.4h-8.062v18.131h-20.4V134.4Zm65.224,29.04a14.186,14.186,0,0,1-2.731,5,11.176,11.176,0,0,1-4.146,3,14.32,14.32,0,0,1-10.53,0,11.16,11.16,0,0,1-4.146-3,14.186,14.186,0,0,1-2.731-5,25.5,25.5,0,0,1,0-14.051,14.357,14.357,0,0,1,2.731-5.018,10.931,10.931,0,0,1,4.146-3,14.536,14.536,0,0,1,10.53,0,10.947,10.947,0,0,1,4.146,3,14.357,14.357,0,0,1,2.731,5.018A25.5,25.5,0,0,1,327.9,163.443Zm7.881-16.256a20.4,20.4,0,0,0-4.179-7.223,18.778,18.778,0,0,0-6.746-4.705,25.489,25.489,0,0,0-18.2,0,18.769,18.769,0,0,0-6.746,4.705,20.4,20.4,0,0,0-4.179,7.223,30.462,30.462,0,0,0,0,18.46,20.39,20.39,0,0,0,4.179,7.223,18.771,18.771,0,0,0,6.746,4.706,25.5,25.5,0,0,0,18.2,0,18.78,18.78,0,0,0,6.746-4.706,20.39,20.39,0,0,0,4.179-7.223A30.462,30.462,0,0,0,335.782,147.187Zm20.127,20.484q-1.216-3.587-1.76-5.117t-2.287-6.268L343.7,134.4h-8.588l17.21,44.028h7.239l17.21-44.028h-8.523l-8.161,21.883q-1.745,4.737-2.287,6.268t-1.76,5.117h-0.132Zm29.456-8.391h17.572v-6.746H385.365V141.149h20.468V134.4H377.3v44.028h29.714v-6.746H385.365v-12.4Zm55.288-18.97a12.769,12.769,0,0,0-5.989-4.393,22.782,22.782,0,0,0-4.9-1.135,47.375,47.375,0,0,0-6.187-.379H410.182v44.028h8.062V161.386h5.528l11.978,17.045h9.674l-13.1-18.1V160.2a15.074,15.074,0,0,0,7.881-4.755A13.5,13.5,0,0,0,440.653,140.31Zm-22.409,14.33V141.149H424a31.459,31.459,0,0,1,4.311.247,10.6,10.6,0,0,1,2.9.773,5.063,5.063,0,0,1,2.517,2.155,6.5,6.5,0,0,1,.74,3.143,7.1,7.1,0,0,1-.938,3.669,6.291,6.291,0,0,1-3.372,2.517,14.625,14.625,0,0,1-3.242.74,37.582,37.582,0,0,1-4.689.247h-3.981Z"/>
  <path id="left_tri" data-name="left tri" class="cls-1" d="M53.886,93.237l53.8,93.183H0.087Z"/>
  <path id="top_tri" data-name="top tri" class="cls-1" d="M107.886,0.237l53.8,93.183H54.087Z"/>
  <path id="right_tri" data-name="right tri" class="cls-1" d="M161.886,93.237l53.8,93.183h-107.6Z"/>
</svg>
