<?xml version="1.0" ?><svg height="24" id="svg8" version="1.1" viewBox="0 0 24 24" width="24" xmlns="http://www.w3.org/2000/svg" xmlns:cc="http://creativecommons.org/ns#" xmlns:dc="http://purl.org/dc/elements/1.1/" xmlns:rdf="http://www.w3.org/1999/02/22-rdf-syntax-ns#" xmlns:svg="http://www.w3.org/2000/svg"><defs id="defs2"/><g id="g1275" style="display:inline" transform="translate(0,-290.64877)"><path d="m 11.57031,292.74609 -7.57617,3.60352 c -0.24488,0.117 -0.4317,0.32849 -0.51758,0.58594 C 3.17415,297.8397 3,298.81176 3,299.82617 c 0,9.5519 8.66211,12.76563 8.66211,12.76563 0.21844,0.0784 0.45734,0.0784 0.67578,0 0,0 8.66211,-3.21373 8.66211,-12.76563 0,-1.01441 -0.17415,-1.98647 -0.47656,-2.89062 -0.0859,-0.25745 -0.2727,-0.46894 -0.51758,-0.58594 l -7.57617,-3.60352 c -0.26353,-0.1379 -0.64046,-0.12639 -0.85938,0 z M 12,294.75781 l 6.6875,3.17774 c 0.17065,0.60886 0.3125,1.23153 0.3125,1.89062 0,7.74529 -6.0727,10.36781 -7,10.72852 -0.9273,-0.36071 -7,-2.98323 -7,-10.72852 0,-0.65909 0.14185,-1.28176 0.3125,-1.89062 z" id="path1265" style="color:#000000;font-style:normal;font-variant:normal;font-weight:normal;font-stretch:normal;font-size:medium;line-height:normal;font-family:sans-serif;font-variant-ligatures:normal;font-variant-position:normal;font-variant-caps:normal;font-variant-numeric:normal;font-variant-alternates:normal;font-variant-east-asian:normal;font-feature-settings:normal;font-variation-settings:normal;text-indent:0;text-align:start;text-decoration:none;text-decoration-line:none;text-decoration-style:solid;text-decoration-color:#000000;letter-spacing:normal;word-spacing:normal;text-transform:none;writing-mode:lr-tb;direction:ltr;text-orientation:mixed;dominant-baseline:auto;baseline-shift:baseline;text-anchor:start;white-space:normal;shape-padding:0;shape-margin:0;inline-size:0;clip-rule:nonzero;display:inline;overflow:visible;visibility:visible;opacity:1;isolation:auto;mix-blend-mode:normal;color-interpolation:sRGB;color-interpolation-filters:linearRGB;solid-color:#000000;solid-opacity:1;vector-effect:none;fill:#000000;fill-opacity:1;fill-rule:nonzero;stroke:none;stroke-linecap:round;stroke-linejoin:round;stroke-miterlimit:4;stroke-dasharray:none;stroke-dashoffset:0;stroke-opacity:1;color-rendering:auto;image-rendering:auto;shape-rendering:auto;text-rendering:auto;enable-background:accumulate;stop-color:#000000;stop-opacity:1"/><path d="m 15.19336,299.05859 -3.6582,4.98829 -1.7793,-2.05274 c -0.362,-0.4167 -0.99318,-0.46128 -1.41016,-0.0996 -0.4173,0.36143 -0.46276,0.99266 -0.10156,1.41016 l 2.59961,3 c 0.42012,0.48561 1.1825,0.45511 1.5625,-0.0625 l 4.40039,-6 c 0.32711,-0.44543 0.23089,-1.07174 -0.21484,-1.39844 -0.4734,-0.32079 -1.06329,-0.26628 -1.39844,0.21483 z" id="path1271" style="color:#000000;font-style:normal;font-variant:normal;font-weight:normal;font-stretch:normal;font-size:medium;line-height:normal;font-family:sans-serif;font-variant-ligatures:normal;font-variant-position:normal;font-variant-caps:normal;font-variant-numeric:normal;font-variant-alternates:normal;font-variant-east-asian:normal;font-feature-settings:normal;font-variation-settings:normal;text-indent:0;text-align:start;text-decoration:none;text-decoration-line:none;text-decoration-style:solid;text-decoration-color:#000000;letter-spacing:normal;word-spacing:normal;text-transform:none;writing-mode:lr-tb;direction:ltr;text-orientation:mixed;dominant-baseline:auto;baseline-shift:baseline;text-anchor:start;white-space:normal;shape-padding:0;shape-margin:0;inline-size:0;clip-rule:nonzero;display:inline;overflow:visible;visibility:visible;opacity:1;isolation:auto;mix-blend-mode:normal;color-interpolation:sRGB;color-interpolation-filters:linearRGB;solid-color:#000000;solid-opacity:1;vector-effect:none;fill:#000000;fill-opacity:1;fill-rule:nonzero;stroke:none;stroke-linecap:round;stroke-linejoin:round;stroke-miterlimit:4;stroke-dasharray:none;stroke-dashoffset:0;stroke-opacity:1;color-rendering:auto;image-rendering:auto;shape-rendering:auto;text-rendering:auto;enable-background:accumulate;stop-color:#000000;stop-opacity:1"/></g></svg>